<svg width="180" height="180" viewBox="0 0 180 180" fill="none" xmlns="http://www.w3.org/2000/svg">
  <defs>
    <linearGradient id="gradient" x1="0%" y1="0%" x2="100%" y2="100%">
      <stop offset="0%" style="stop-color:#667eea;stop-opacity:1" />
      <stop offset="100%" style="stop-color:#764ba2;stop-opacity:1" />
    </linearGradient>
  </defs>
  
  <!-- Background Circle -->
  <circle cx="90" cy="90" r="80" fill="url(#gradient)" stroke="#fff" stroke-width="4"/>
  
  <!-- Trophy Icon -->
  <g transform="translate(90, 90)">
    <!-- Trophy Base -->
    <rect x="-15" y="30" width="30" height="7.5" rx="3.75" fill="#fff"/>
    
    <!-- Trophy Body -->
    <rect x="-11.25" y="-15" width="22.5" height="45" rx="11.25" fill="#fff"/>
    
    <!-- Trophy Handles -->
    <path d="M -22.5 -7.5 Q -30 -15 -22.5 -22.5 Q -15 -15 -22.5 -7.5" stroke="#fff" stroke-width="2.8125" fill="none"/>
    <path d="M 22.5 -7.5 Q 30 -15 22.5 -22.5 Q 15 -15 22.5 -7.5" stroke="#fff" stroke-width="2.8125" fill="none"/>
    
    <!-- Trophy Top -->
    <rect x="-7.5" y="-22.5" width="15" height="7.5" rx="3.75" fill="#fff"/>
    
    <!-- Star on Trophy -->
    <g transform="translate(0, -7.5)">
      <path d="M 0 -5.625 L 1.40625 -2.8125 L 5.625 -2.8125 L 2.8125 1.40625 L 5.625 5.625 L 0 2.8125 L -5.625 5.625 L -2.8125 1.40625 L -5.625 -2.8125 L -1.40625 -2.8125 Z" fill="#667eea"/>
    </g>
  </g>
</svg>