<svg width="32" height="32" viewBox="0 0 32 32" fill="none" xmlns="http://www.w3.org/2000/svg">
  <defs>
    <linearGradient id="gradient" x1="0%" y1="0%" x2="100%" y2="100%">
      <stop offset="0%" style="stop-color:#667eea;stop-opacity:1" />
      <stop offset="100%" style="stop-color:#764ba2;stop-opacity:1" />
    </linearGradient>
  </defs>
  
  <!-- Background Circle -->
  <circle cx="16" cy="16" r="6" fill="url(#gradient)" stroke="#fff" stroke-width="4"/>
  
  <!-- Trophy Icon -->
  <g transform="translate(16, 16)">
    <!-- Trophy Base -->
    <rect x="-2.6666666666666665" y="5.333333333333333" width="5.333333333333333" height="1.3333333333333333" rx="0.6666666666666666" fill="#fff"/>
    
    <!-- Trophy Body -->
    <rect x="-2" y="-2.6666666666666665" width="4" height="8" rx="2" fill="#fff"/>
    
    <!-- Trophy Handles -->
    <path d="M -4 -1.3333333333333333 Q -5.333333333333333 -2.6666666666666665 -4 -4 Q -2.6666666666666665 -2.6666666666666665 -4 -1.3333333333333333" stroke="#fff" stroke-width="0.5" fill="none"/>
    <path d="M 4 -1.3333333333333333 Q 5.333333333333333 -2.6666666666666665 4 -4 Q 2.6666666666666665 -2.6666666666666665 4 -1.3333333333333333" stroke="#fff" stroke-width="0.5" fill="none"/>
    
    <!-- Trophy Top -->
    <rect x="-1.3333333333333333" y="-4" width="2.6666666666666665" height="1.3333333333333333" rx="0.6666666666666666" fill="#fff"/>
    
    <!-- Star on Trophy -->
    <g transform="translate(0, -1.3333333333333333)">
      <path d="M 0 -1 L 0.25 -0.5 L 1 -0.5 L 0.5 0.25 L 1 1 L 0 0.5 L -1 1 L -0.5 0.25 L -1 -0.5 L -0.25 -0.5 Z" fill="#667eea"/>
    </g>
  </g>
</svg>