<svg width="512" height="512" viewBox="0 0 512 512" fill="none" xmlns="http://www.w3.org/2000/svg">
  <defs>
    <linearGradient id="gradient" x1="0%" y1="0%" x2="100%" y2="100%">
      <stop offset="0%" style="stop-color:#667eea;stop-opacity:1" />
      <stop offset="100%" style="stop-color:#764ba2;stop-opacity:1" />
    </linearGradient>
  </defs>
  
  <!-- Background Circle -->
  <circle cx="256" cy="256" r="240" fill="url(#gradient)" stroke="#fff" stroke-width="8"/>
  
  <!-- Trophy Icon -->
  <g transform="translate(256, 256)">
    <!-- Trophy Base -->
    <rect x="-40" y="80" width="80" height="20" rx="10" fill="#fff"/>
    
    <!-- Trophy Body -->
    <rect x="-30" y="-40" width="60" height="120" rx="30" fill="#fff"/>
    
    <!-- Trophy Handles -->
    <path d="M -60 -20 Q -80 -40 -60 -60 Q -40 -40 -60 -20" stroke="#fff" stroke-width="8" fill="none"/>
    <path d="M 60 -20 Q 80 -40 60 -60 Q 40 -40 60 -20" stroke="#fff" stroke-width="8" fill="none"/>
    
    <!-- Trophy Top -->
    <rect x="-20" y="-60" width="40" height="20" rx="10" fill="#fff"/>
    
    <!-- Star on Trophy -->
    <g transform="translate(0, -20)">
      <path d="M 0 -15 L 4 -5 L 14 -5 L 7 2 L 10 12 L 0 7 L -10 12 L -7 2 L -14 -5 L -4 -5 Z" fill="#667eea"/>
    </g>
  </g>
  
  <!-- Text -->
  <text x="256" y="380" font-family="Arial, sans-serif" font-size="32" font-weight="bold" text-anchor="middle" fill="#fff">Lo Gane</text>
</svg>
