<svg width="512" height="512" viewBox="0 0 512 512" fill="none" xmlns="http://www.w3.org/2000/svg">
  <defs>
    <linearGradient id="gradient" x1="0%" y1="0%" x2="100%" y2="100%">
      <stop offset="0%" style="stop-color:#667eea;stop-opacity:1" />
      <stop offset="100%" style="stop-color:#764ba2;stop-opacity:1" />
    </linearGradient>
  </defs>
  
  <!-- Background Circle -->
  <circle cx="256" cy="256" r="246" fill="url(#gradient)" stroke="#fff" stroke-width="4"/>
  
  <!-- Trophy Icon -->
  <g transform="translate(256, 256)">
    <!-- Trophy Base -->
    <rect x="-42.666666666666664" y="85.33333333333333" width="85.33333333333333" height="21.333333333333332" rx="10.666666666666666" fill="#fff"/>
    
    <!-- Trophy Body -->
    <rect x="-32" y="-42.666666666666664" width="64" height="128" rx="32" fill="#fff"/>
    
    <!-- Trophy Handles -->
    <path d="M -64 -21.333333333333332 Q -85.33333333333333 -42.666666666666664 -64 -64 Q -42.666666666666664 -42.666666666666664 -64 -21.333333333333332" stroke="#fff" stroke-width="8" fill="none"/>
    <path d="M 64 -21.333333333333332 Q 85.33333333333333 -42.666666666666664 64 -64 Q 42.666666666666664 -42.666666666666664 64 -21.333333333333332" stroke="#fff" stroke-width="8" fill="none"/>
    
    <!-- Trophy Top -->
    <rect x="-21.333333333333332" y="-64" width="42.666666666666664" height="21.333333333333332" rx="10.666666666666666" fill="#fff"/>
    
    <!-- Star on Trophy -->
    <g transform="translate(0, -21.333333333333332)">
      <path d="M 0 -16 L 4 -8 L 16 -8 L 8 4 L 16 16 L 0 8 L -16 16 L -8 4 L -16 -8 L -4 -8 Z" fill="#667eea"/>
    </g>
  </g>
</svg>